<svg xmlns="http://www.w3.org/2000/svg" width="1100" height="660" viewBox="0 0 1100 660">
<style>text{font-family:Arial,sans-serif;fill:#111}.title{font-size:26px;font-weight:700}.node{fill:#fff;stroke:#222;stroke-width:2}.label{font-size:15px;font-weight:600;text-anchor:middle}.small{font-size:12px;text-anchor:middle}.edge{stroke:#333;stroke-width:2;fill:none;marker-end:url(#arrow)}.optional{stroke-dasharray:7 6}</style>
<defs><marker id="arrow" markerWidth="10" markerHeight="10" refX="9" refY="3" orient="auto"><path d="M0,0 L0,6 L9,3 z" fill="#333"/></marker></defs>
<text class="title" x="35" y="42">ESPressio Current Released Generation — Event 6.0.3</text>
<rect class="node" x="35" y="105" width="190" height="60" rx="8"/><text class="label" x="130" y="138">Serializable 0.11.3</text>
<rect class="node" x="275" y="105" width="160" height="60" rx="8"/><text class="label" x="355" y="138">Units 0.2.7</text>
<rect class="node" x="485" y="105" width="170" height="60" rx="8"/><text class="label" x="570" y="138">Timing 2.2.8</text>
<rect class="node" x="705" y="105" width="170" height="60" rx="8"/><text class="label" x="790" y="138">Threads 3.1.7</text>
<path class="edge optional" d="M275 135 L225 135"/><path class="edge" d="M485 135 L435 135"/><path class="edge" d="M705 135 L655 135"/>
<rect class="node" x="465" y="255" width="210" height="70" rx="8"/><text class="label" x="570" y="287">Event 6.0.3</text><text class="small" x="570" y="306">mechanism-only</text>
<path class="edge" d="M525 255 L555 165"/><path class="edge" d="M620 255 L760 165"/><path class="edge optional" d="M490 270 L185 165"/>
<rect class="node" x="80" y="425" width="180" height="60" rx="8"/><text class="label" x="170" y="458">Command 1.0.3</text>
<rect class="node" x="310" y="425" width="180" height="60" rx="8"/><text class="label" x="400" y="458">Security 0.4.2</text>
<rect class="node" x="540" y="425" width="180" height="60" rx="8"/><text class="label" x="630" y="458">Sockets 0.7.3</text>
<rect class="node" x="770" y="425" width="180" height="60" rx="8"/><text class="label" x="860" y="458">ESP-Now 0.8.3</text>
<path class="edge optional" d="M170 425 L500 325"/><path class="edge optional" d="M400 425 L540 325"/><path class="edge optional" d="M630 425 L590 325"/><path class="edge optional" d="M860 425 L640 325"/>
<text class="small" x="550" y="540">Downstream completed: Persistence 0.3.2 / WiFi 0.2.0 / Serial 0.8.1.</text>
<text class="small" x="550" y="566">Event has no reverse dependency on Command, Security, Sockets, ESP-Now or WiFi.</text>
<text class="small" x="550" y="592">Serial remains terminal/downstream; Tree remains standalone.</text>
</svg>
